<?xml version="1.0" encoding="UTF-8"?>
<svg xmlns="http://www.w3.org/2000/svg" xmlns:xlink="http://www.w3.org/1999/xlink" width="20px" height="20px" viewBox="0 0 20 20" version="1.1">
<g id="surface1">
<rect x="0" y="0" width="20" height="20" style="fill:rgb(96.862745%,96.862745%,96.862745%);fill-opacity:1;stroke:none;"/>
<path style="fill:none;stroke-width:7.93749;stroke-linecap:butt;stroke-linejoin:round;stroke:rgb(30.196078%,30.196078%,30.196078%);stroke-opacity:1;stroke-miterlimit:4;" d="M 76.016024 85.317792 L 113.068027 85.317792 C 114.514967 85.317792 115.703525 86.50635 115.703525 87.95329 L 115.703525 125.005293 C 115.703525 126.452233 114.514967 127.640791 113.068027 127.640791 L 76.016024 127.640791 C 74.569084 127.640791 73.380526 126.452233 73.380526 125.005293 L 73.380526 87.95329 C 73.380526 86.50635 74.569084 85.317792 76.016024 85.317792 Z M 76.016024 85.317792 " transform="matrix(0.0755905,0,0,0.0755905,0.000000755905,0)"/>
<path style="fill:none;stroke-width:7.93749;stroke-linecap:butt;stroke-linejoin:round;stroke:rgb(30.196078%,30.196078%,30.196078%);stroke-opacity:1;stroke-miterlimit:4;" d="M 76.016024 148.828129 L 113.068027 148.828129 C 114.514967 148.828129 115.703525 150.016687 115.703525 151.463627 L 115.703525 188.51563 C 115.703525 189.96257 114.514967 191.151128 113.068027 191.151128 L 76.016024 191.151128 C 74.569084 191.151128 73.380526 189.96257 73.380526 188.51563 L 73.380526 151.463627 C 73.380526 150.016687 74.569084 148.828129 76.016024 148.828129 Z M 76.016024 148.828129 " transform="matrix(0.0755905,0,0,0.0755905,0.000000755905,0)"/>
<path style="fill:none;stroke-width:7.93749;stroke-linecap:butt;stroke-linejoin:round;stroke:rgb(30.196078%,30.196078%,30.196078%);stroke-opacity:1;stroke-miterlimit:4;" d="M 139.526361 148.828129 L 176.578364 148.828129 C 178.025304 148.828129 179.213862 150.016687 179.213862 151.463627 L 179.213862 188.51563 C 179.213862 189.96257 178.025304 191.151128 176.578364 191.151128 L 139.526361 191.151128 C 138.079421 191.151128 136.890863 189.96257 136.890863 188.51563 L 136.890863 151.463627 C 136.890863 150.016687 138.079421 148.828129 139.526361 148.828129 Z M 139.526361 148.828129 " transform="matrix(0.0755905,0,0,0.0755905,0.000000755905,0)"/>
<path style="fill:none;stroke-width:7.93749;stroke-linecap:butt;stroke-linejoin:round;stroke:rgb(1.960784%,45.098039%,88.235294%);stroke-opacity:1;stroke-miterlimit:4;" d="M 168.525962 -57.661307 L 205.57829 -57.661307 C 207.03992 -57.661307 208.245765 -56.455462 208.245765 -54.993832 L 208.245765 -17.941504 C 208.245765 -16.479874 207.03992 -15.274029 205.57829 -15.274029 L 168.562503 -15.31057 C 167.100873 -15.31057 165.895028 -16.516415 165.895028 -17.978045 L 165.858487 -54.993832 C 165.858487 -56.455462 167.064332 -57.661307 168.525962 -57.661307 Z M 168.525962 -57.661307 " transform="matrix(0.0534506,0.0534506,-0.0534506,0.0534506,0.000000755905,0)"/>
</g>
</svg>
