<?xml version="1.0" encoding="UTF-8"?>
<svg version="1.1" xmlns="http://www.w3.org/2000/svg" width="20" height="20">
<path d="M0 0 C1.32 0 2.64 0 4 0 C6.33634657 0.31151288 8.67038557 0.64159778 11 1 C11.97046449 7.30801917 11.97046449 12.69198083 11 19 C4.69198083 19.97046449 -0.69198083 19.97046449 -7 19 C-7.96241612 12.74429524 -8.17897097 7.24854613 -7 1 C-4.50241818 -0.24879091 -2.77595477 -0.06609416 0 0 Z M-5 3 C-5 4.32 -5 5.64 -5 7 C-3.68 7 -2.36 7 -1 7 C-1 5.68 -1 4.36 -1 3 C-2.32 3 -3.64 3 -5 3 Z M5 3 C5 4.32 5 5.64 5 7 C6.32 7 7.64 7 9 7 C9 5.68 9 4.36 9 3 C7.68 3 6.36 3 5 3 Z M-5 13 C-5 14.32 -5 15.64 -5 17 C-3.68 17 -2.36 17 -1 17 C-1 15.68 -1 14.36 -1 13 C-2.32 13 -3.64 13 -5 13 Z M5 13 C5 14.32 5 15.64 5 17 C6.32 17 7.64 17 9 17 C9 15.68 9 14.36 9 13 C7.68 13 6.36 13 5 13 Z " fill="#000000" transform="translate(8,0)"/>
</svg>
